<svg  id="sbol-svg-ribonuclease" width="27px" height="27px" viewBox="0 0 27 27" version="1.1" xmlns="http://www.w3.org/2000/svg" xmlns:xlink="http://www.w3.org/1999/xlink">
    <!-- Generator: Sketch 3.6.1 (26313) - http://www.bohemiancoding.com/sketch -->
    <title>ribonuclease</title>
    <desc>Created with Sketch.</desc>
    <defs></defs>
    <g id="Page-1" stroke="none" stroke-width="1" fill="none" fill-rule="evenodd">
        <g id="Group-2" transform="translate(6.500000, 6.500000)" stroke="#E6E6E6" stroke-linecap="square">
            <path d="M1.28375315e-08,14 L3.23076918,10.7692308" id="Line"></path>
            <path d="M10.7692308,3.23076918 L14,1.283796e-08" id="Line-Copy-2"></path>
            <path d="M10.7692306,14 L14,10.7692308" id="Line" transform="translate(12.384615, 12.384615) scale(-1, 1) translate(-12.384615, -12.384615) "></path>
            <path d="M-4.95982277e-09,3.23076923 L3.23076922,-2.33416753e-09" id="Line-Copy-2" transform="translate(1.615385, 1.615385) scale(-1, 1) translate(-1.615385, -1.615385) "></path>
        </g>
        <g id="Group" transform="translate(11.500000, 11.500000)" stroke="#E6E6E6" stroke-linecap="square">
            <path d="M7.94740629e-09,3.99999997 L4.00000001,-3.1789251e-08" id="Line-Copy"></path>
            <path d="M-1.21376762e-07,4 L4.00000004,2.16732365e-09" id="Line-Copy" transform="translate(2.000000, 2.000000) scale(-1, 1) translate(-2.000000, -2.000000) "></path>
        </g>
        <path d="M13.5,21 L13.5,18" id="Stroke-4" stroke="#E6E6E6"></path>
        <path d="M13.5,25 L13.5,22" id="Stroke-4-Copy" stroke="#E6E6E6"></path>
    </g>
</svg>
